# xmcd
#
# Track frame offsets: 
#        150
#        20241
#        38295
#        55559
#        73541
#        100414
#        119046
#        140212
#        163128
#        185881
#
# Disc length: 2898 seconds
#
# Revision: 0
# Processed by: cddbd v1.5.2PL0 Copyright (c) Steve Scherf et al.
# Submitted via: ExactAudioCopy v1.3
#
DISCID=950b500a
DTITLE=原田真二 - Shinji Harada 1992-1996 Columbia Years Complete  - Miracl
DTITLE=e Love [02 - Make it a Paradise]
DYEAR=2017
DGENRE=JPop
TTITLE0=Make it a Paradise
TTITLE1=Shining Star
TTITLE2=Saila
TTITLE3=波を聴いた夜 -Love Affair-
TTITLE4=さよならのわけもきかないで (Don't Cry Baby)
TTITLE5=Lonely Moonlight
TTITLE6=Hey, Hey, Girl
TTITLE7=Time Comes Around
TTITLE8=D. C. Vibration
TTITLE9=The Children Of The Earth
EXTD=
EXTT0=
EXTT1=
EXTT2=
EXTT3=
EXTT4=
EXTT5=
EXTT6=
EXTT7=
EXTT8=
EXTT9=
PLAYORDER=
